REM MD5 81317b3c5c244a1c8a611e27a8a3b6a0
FILE "Smurfs, The (USA) (En,Fr,Es).bin" BINARY
  TRACK 01 MODE2/2352
    INDEX 01 00:00:00
  TRACK 02 AUDIO
    INDEX 00 24:41:54
    INDEX 01 24:43:54
  TRACK 03 AUDIO
    INDEX 00 25:26:01
    INDEX 01 25:28:01
  TRACK 04 AUDIO
    INDEX 00 26:39:56
    INDEX 01 26:41:56
  TRACK 05 AUDIO
    INDEX 00 27:35:38
    INDEX 01 27:37:38
  TRACK 06 AUDIO
    INDEX 00 28:29:69
    INDEX 01 28:31:69
  TRACK 07 AUDIO
    INDEX 00 29:49:27
    INDEX 01 29:51:27
  TRACK 08 AUDIO
    INDEX 00 31:48:43
    INDEX 01 31:50:43
  TRACK 09 AUDIO
    INDEX 00 32:16:44
    INDEX 01 32:18:44
  TRACK 10 AUDIO
    INDEX 00 33:13:66
    INDEX 01 33:15:66
  TRACK 11 AUDIO
    INDEX 00 34:29:67
    INDEX 01 34:31:67
  TRACK 12 AUDIO
    INDEX 00 36:15:68
    INDEX 01 36:17:68
  TRACK 13 AUDIO
    INDEX 00 36:54:67
    INDEX 01 36:56:67
  TRACK 14 AUDIO
    INDEX 00 38:25:62
    INDEX 01 38:27:62
  TRACK 15 AUDIO
    INDEX 00 40:22:74
    INDEX 01 40:24:74
  TRACK 16 AUDIO
    INDEX 00 41:42:32
    INDEX 01 41:44:32
  TRACK 17 AUDIO
    INDEX 00 42:08:33
    INDEX 01 42:10:33
  TRACK 18 AUDIO
    INDEX 00 42:57:57
    INDEX 01 42:59:57
  TRACK 19 AUDIO
    INDEX 00 43:47:21
    INDEX 01 43:49:21
  TRACK 20 AUDIO
    INDEX 00 44:39:04
    INDEX 01 44:41:04
  TRACK 21 AUDIO
    INDEX 00 44:47:44
    INDEX 01 44:49:44
  TRACK 22 AUDIO
    INDEX 00 44:56:00
    INDEX 01 44:58:00
  TRACK 23 AUDIO
    INDEX 00 45:05:70
    INDEX 01 45:07:70
  TRACK 24 AUDIO
    INDEX 00 45:14:14
    INDEX 01 45:16:14
  TRACK 25 AUDIO
    INDEX 00 45:23:44
    INDEX 01 45:25:44
  TRACK 26 AUDIO
    INDEX 00 45:32:50
    INDEX 01 45:34:50
  TRACK 27 AUDIO
    INDEX 00 45:42:09
    INDEX 01 45:44:09
  TRACK 28 AUDIO
    INDEX 00 45:51:04
    INDEX 01 45:53:04
  TRACK 29 AUDIO
    INDEX 00 45:59:26
    INDEX 01 46:01:26
  TRACK 30 AUDIO
    INDEX 00 46:08:16
    INDEX 01 46:10:16
  TRACK 31 AUDIO
    INDEX 00 46:17:60
    INDEX 01 46:19:60
  TRACK 32 AUDIO
    INDEX 00 46:25:28
    INDEX 01 46:27:28
  TRACK 33 AUDIO
    INDEX 00 46:33:72
    INDEX 01 46:35:72
  TRACK 34 AUDIO
    INDEX 00 46:40:20
    INDEX 01 46:42:20
  TRACK 35 AUDIO
    INDEX 00 46:46:50
    INDEX 01 46:48:50
  TRACK 36 AUDIO
    INDEX 00 46:53:52
    INDEX 01 46:55:52
  TRACK 37 AUDIO
    INDEX 00 46:59:70
    INDEX 01 47:01:70
  TRACK 38 AUDIO
    INDEX 00 47:06:66
    INDEX 01 47:08:66
  TRACK 39 AUDIO
    INDEX 00 47:14:41
    INDEX 01 47:16:41
  TRACK 40 AUDIO
    INDEX 00 47:21:15
    INDEX 01 47:23:15
  TRACK 41 AUDIO
    INDEX 00 47:27:34
    INDEX 01 47:29:34
  TRACK 42 AUDIO
    INDEX 00 47:34:00
    INDEX 01 47:36:00
  TRACK 43 AUDIO
    INDEX 00 47:40:38
    INDEX 01 47:42:38
  TRACK 44 AUDIO
    INDEX 00 47:46:66
    INDEX 01 47:48:66
  TRACK 45 AUDIO
    INDEX 00 47:58:30
    INDEX 01 48:00:30
  TRACK 46 AUDIO
    INDEX 00 48:07:32
    INDEX 01 48:09:32
  TRACK 47 AUDIO
    INDEX 00 48:16:61
    INDEX 01 48:18:61
  TRACK 48 AUDIO
    INDEX 00 48:27:20
    INDEX 01 48:29:20
  TRACK 49 AUDIO
    INDEX 00 48:37:72
    INDEX 01 48:39:72
  TRACK 50 AUDIO
    INDEX 00 48:47:31
    INDEX 01 48:49:31
REM LEADOUT 51:55:41
